<svg width="52" height="52" viewBox="0 0 52 52" fill="none" xmlns="http://www.w3.org/2000/svg">
<circle cx="26" cy="26" r="25" fill="#F1F2F4" stroke="#444444" stroke-width="2"/>
<g clip-path="url(#clip0_3_100)">
<path d="M14 26C14 19.3832 19.3832 14 26 14C28.6723 14 31.2017 14.8598 33.3147 16.4864L30.5262 20.1088C29.2197 19.1031 27.6545 18.5714 26 18.5714C21.9039 18.5714 18.5714 21.9039 18.5714 26C18.5714 30.0961 21.9039 33.4286 26 33.4286C29.2991 33.4286 32.1026 31.2671 33.0688 28.2857H26V23.7143H38V26C38 32.6168 32.6168 38 26 38C19.3832 38 14 32.6168 14 26Z" fill="#444444"/>
</g>
<defs>
<clipPath id="clip0_3_100">
<rect width="24" height="24" fill="white" transform="translate(14 14)"/>
</clipPath>
</defs>
</svg>
